<?xml version="1.0" encoding="utf-8"?>
<!-- Generator: Adobe Illustrator 17.0.0, SVG Export Plug-In . SVG Version: 6.00 Build 0)  -->
<!DOCTYPE svg PUBLIC "-//W3C//DTD SVG 1.1//EN" "http://www.w3.org/Graphics/SVG/1.1/DTD/svg11.dtd">
<svg version="1.1" id="Camada_1" xmlns="http://www.w3.org/2000/svg" xmlns:xlink="http://www.w3.org/1999/xlink" x="0px" y="0px"
	 width="512px" height="512px" viewBox="0 0 512 512" enable-background="new 0 0 512 512" xml:space="preserve">
<g id="icomoon-ignore">
</g>
<g>
	<g>
		<path fill-rule="evenodd" clip-rule="evenodd" fill="#231F20" d="M260.607-2.462c-137.732,0-249.392,112.733-249.392,251.807
			c0,47.571,13.076,92.067,35.784,130.022L1.986,514.462l138.079-44.631c35.733,19.944,76.821,31.321,120.542,31.321
			c137.753,0,249.407-112.747,249.407-251.807C510.014,110.271,398.36-2.462,260.607-2.462z M260.607,458.962
			c-42.163,0-81.433-12.77-114.222-34.658L66.601,450.09l25.933-77.839c-24.854-34.565-39.537-77.025-39.537-122.905
			c0-115.592,93.137-209.631,207.611-209.631c114.492,0,207.625,94.039,207.625,209.631
			C468.232,364.929,375.099,458.962,260.607,458.962z"/>
	</g>
</g>
<path fill="#231F20" d="M377.937,217.436L194.412,445.52l55.66-169.4l-97.997,1.16L324.836,53.475l-52.169,163.029L377.937,217.436z
	"/>
</svg>
