<?xml version="1.0" encoding="utf-8"?>
<!-- Generator: Adobe Illustrator 17.0.0, SVG Export Plug-In . SVG Version: 6.00 Build 0)  -->
<!DOCTYPE svg PUBLIC "-//W3C//DTD SVG 1.1//EN" "http://www.w3.org/Graphics/SVG/1.1/DTD/svg11.dtd">
<svg version="1.1" id="Camada_1" xmlns="http://www.w3.org/2000/svg" xmlns:xlink="http://www.w3.org/1999/xlink" x="0px" y="0px"
	 width="512px" height="512px" viewBox="0 0 512 512" enable-background="new 0 0 512 512" xml:space="preserve">
<g id="icomoon-ignore">
</g>
<g>
	<path d="M473.543,68.664h-17.688c0.019-0.367,0.056-0.729,0.056-1.101V46.919c0-11.817-9.575-21.401-21.401-21.401h-49.945
		c-11.827,0-21.401,9.579-21.401,21.401v20.644c0,0.372,0.037,0.734,0.056,1.101H38.456c-21.206,0-38.457,17.252-38.457,38.457
		V404.88c0,21.205,17.251,38.456,38.457,38.456h435.087c21.205,0,38.456-17.251,38.456-38.456V107.121
		C511.999,85.916,494.748,68.664,473.543,68.664z M476.159,404.88c0,1.442-1.174,2.616-2.616,2.616H38.456
		c-1.443,0-2.617-1.174-2.617-2.616V107.121c0-1.443,1.174-2.617,2.617-2.617h435.087c1.442,0,2.616,1.174,2.616,2.617V404.88z"/>
	<path d="M256,154.378c-56.035,0-101.622,45.587-101.622,101.622c0,56.034,45.592,101.622,101.632,101.622
		c27.144,0,52.662-10.571,71.856-29.767c19.194-19.196,29.762-44.716,29.756-71.855C357.622,199.965,312.035,154.378,256,154.378z
		 M302.521,302.514c-12.424,12.426-28.942,19.269-46.512,19.269c-36.278,0-65.792-29.51-65.792-65.782s29.51-65.782,65.782-65.782
		s65.782,29.51,65.782,65.786C321.786,273.571,314.945,290.089,302.521,302.514z"/>
</g>
</svg>
