<?xml version="1.0" encoding="utf-8"?>
<!-- Generator: Adobe Illustrator 17.0.0, SVG Export Plug-In . SVG Version: 6.00 Build 0)  -->
<!DOCTYPE svg PUBLIC "-//W3C//DTD SVG 1.1//EN" "http://www.w3.org/Graphics/SVG/1.1/DTD/svg11.dtd">
<svg version="1.1" id="Camada_1" xmlns="http://www.w3.org/2000/svg" xmlns:xlink="http://www.w3.org/1999/xlink" x="0px" y="0px"
	 width="512px" height="512px" viewBox="0 0 512 512" enable-background="new 0 0 512 512" xml:space="preserve">
<g id="icomoon-ignore">
</g>
<g>
	<path d="M505.551,465.516c-4.685-10.507-11.708-23.196-18.501-35.467c-6.43-11.615-16.688-30.146-19.547-38.652
		c26.457-41.003,40.411-88.423,40.411-137.5c0-67.852-26.431-131.637-74.422-179.606c-47.96-47.943-111.722-74.347-179.54-74.347
		c-67.824,0-131.598,26.418-179.573,74.389C26.416,122.291,0,186.065-0.002,253.906c0,67.84,26.415,131.616,74.379,179.58
		c47.961,47.962,111.723,74.374,179.553,74.372c0.004,0,0.016,0,0.02,0c48.418,0,95.312-13.611,135.949-39.414
		c8.489,2.593,27.554,12.858,39.453,19.267c28.031,15.095,45.891,24.347,59.265,24.344c8.511-0.001,13.888-3.592,16.898-6.603
		C517.854,493.114,509.544,474.474,505.551,465.516z M446.345,456.155c-27.769-14.953-45.457-24.118-58.646-24.118
		c-5.075,0-9.596,1.29-13.438,3.835c-35.694,23.647-77.297,36.146-120.311,36.146c-0.007,0-0.009,0-0.017,0
		c-58.253,0-113.022-22.686-154.212-63.875c-41.195-41.194-63.881-95.971-63.88-154.237c0-58.267,22.687-113.04,63.88-154.23
		c41.207-41.202,95.98-63.893,154.232-63.893c58.247,0,113.011,22.677,154.202,63.854c41.22,41.2,63.92,95.983,63.92,154.259
		c0,43.705-12.878,85.871-37.244,121.943c-10.303,15.265,0.767,35.263,20.863,71.567c3.022,5.461,6.881,12.431,10.436,19.195
		C459.17,463.062,451.968,459.184,446.345,456.155z"/>
	<path d="M353.234,156.646H158.766c-9.897,0-17.92,8.023-17.92,17.92s8.023,17.92,17.92,17.92h194.468
		c9.896,0,17.92-8.023,17.92-17.92S363.131,156.646,353.234,156.646z"/>
	<path d="M286.69,238.08H158.767c-9.897,0-17.92,8.023-17.92,17.92c0,9.896,8.023,17.92,17.92,17.92H286.69
		c9.896,0,17.92-8.023,17.92-17.92C304.61,246.103,296.587,238.08,286.69,238.08z"/>
	<path d="M222.725,319.513h-63.959c-9.897,0-17.92,8.023-17.92,17.92s8.023,17.92,17.92,17.92h63.959
		c9.897,0,17.92-8.023,17.92-17.92S232.622,319.513,222.725,319.513z"/>
</g>
</svg>
