<?xml version="1.0" encoding="utf-8"?>
<!-- Generator: Adobe Illustrator 17.0.0, SVG Export Plug-In . SVG Version: 6.00 Build 0)  -->
<!DOCTYPE svg PUBLIC "-//W3C//DTD SVG 1.1//EN" "http://www.w3.org/Graphics/SVG/1.1/DTD/svg11.dtd">
<svg version="1.1" id="Camada_1" xmlns="http://www.w3.org/2000/svg" xmlns:xlink="http://www.w3.org/1999/xlink" x="0px" y="0px"
	 width="512px" height="512px" viewBox="0 0 512 512" enable-background="new 0 0 512 512" xml:space="preserve">
<g id="icomoon-ignore">
</g>
<path d="M255.996,512c-68.383,0-132.671-26.628-181.021-74.979C26.627,388.672,0.001,324.386,0.001,256.005
	C0,187.62,26.628,123.333,74.979,74.988C123.343,26.631,187.629,0,255.996,0c68.363,0,132.638,26.616,180.983,74.944
	C485.357,123.292,512,187.591,512,255.995c0,68.381-26.628,132.668-74.979,181.021C388.669,485.37,324.38,512,255.996,512z
	 M255.996,35.84c-58.795,0-114.082,22.904-155.676,64.493c-41.581,41.575-64.48,96.86-64.48,155.672
	c0,58.808,22.899,114.094,64.479,155.674c41.581,41.582,96.868,64.481,155.678,64.481s114.099-22.901,155.683-64.486
	c41.582-41.584,64.482-96.871,64.482-155.679c0-58.826-22.913-114.122-64.518-155.702C370.064,58.729,314.788,35.84,255.996,35.84z"
	/>
<path d="M397.086,222.722L272.439,98.076c-0.615-1.056-1.356-2.056-2.257-2.957l-3.694-3.694c-2.759-2.758-6.462-4.278-10.428-4.278
	c-4.168,0-8.116,1.652-11.117,4.653L115.035,221.707c-6.044,6.043-6.212,15.709-0.375,21.546l3.694,3.694
	c2.758,2.759,6.462,4.278,10.428,4.278c0,0,0,0,0.001,0c4.168,0,8.116-1.652,11.117-4.652l10.1-10.1v146.864
	c0,8.547,6.32,15.5,14.088,15.5h4.709h0.114h173.88h4.076h0.84c2.204,0,4.285-0.56,6.151-1.53c4.832-2.245,8.141-6.73,8.141-11.896
	v-2.074v-2.447V239.352l9.229,9.228c2.922,2.921,6.81,4.531,10.947,4.531c0.001,0,0,0,0.001,0c4.153,0,8.061-1.62,11.001-4.561
	l3.879-3.878C403.116,238.612,403.13,228.765,397.086,222.722z M328.5,367.463h-44V288.74c0-8.83-19.878-9.277-23.862-9.277h-9.275
	c-3.985,0-23.863,0.447-23.863,9.277v78.723H183V203.474l71.561-71.561l73.939,73.939V367.463z"/>
</svg>
