<?xml version="1.0" encoding="utf-8"?>
<!-- Generator: Adobe Illustrator 17.0.0, SVG Export Plug-In . SVG Version: 6.00 Build 0)  -->
<!DOCTYPE svg PUBLIC "-//W3C//DTD SVG 1.1//EN" "http://www.w3.org/Graphics/SVG/1.1/DTD/svg11.dtd">
<svg version="1.1" id="Camada_1" xmlns="http://www.w3.org/2000/svg" xmlns:xlink="http://www.w3.org/1999/xlink" x="0px" y="0px"
	 width="512px" height="512px" viewBox="0 0 512 512" enable-background="new 0 0 512 512" xml:space="preserve">
<path d="M0,255.994c0,141.159,114.841,256.001,256,256.001s256-114.842,256-256.001c0-0.546-0.017-1.088-0.021-1.633
	c0.002-0.113,0.017-0.221,0.017-0.334c0-0.188-0.024-0.371-0.028-0.558C510.605,113.476,396.314,0.005,256,0.005
	C114.841,0.005,0,114.841,0,255.994z M36.554,255.995c0-121.309,98.697-219.87,220.01-219.87
	c112.352,0,205.291,84.42,218.412,193.635h-215.75l64.149-64.28c9.532-9.535,9.531-25.109-0.004-34.642
	c-9.536-9.531-24.993-9.531-34.527,0.003l-92.898,92.918c-8.581,8.57-13.328,19.975-13.348,32.101
	c-0.021,12.155,4.705,23.582,13.309,32.184l88.987,88.978c4.767,4.767,11.016,7.133,17.263,7.133c6.248,0,12.496-2.42,17.263-7.187
	c9.534-9.533,9.534-25.063,0-34.597l-64.159-64.304h220.186c-11.235,110.265-105.112,197.808-218.883,197.808
	C135.25,475.875,36.553,377.308,36.554,255.995z"/>
</svg>
