<?xml version="1.0" encoding="utf-8"?>
<!-- Generator: Adobe Illustrator 17.0.0, SVG Export Plug-In . SVG Version: 6.00 Build 0)  -->
<!DOCTYPE svg PUBLIC "-//W3C//DTD SVG 1.1//EN" "http://www.w3.org/Graphics/SVG/1.1/DTD/svg11.dtd">
<svg version="1.1" id="Camada_1" xmlns="http://www.w3.org/2000/svg" xmlns:xlink="http://www.w3.org/1999/xlink" x="0px" y="0px"
	 width="512px" height="512px" viewBox="0 0 512 512" enable-background="new 0 0 512 512" xml:space="preserve">
<g>
	<path stroke="#FFFFFF" stroke-miterlimit="10" d="M256,512.562c-68.53,0-132.959-26.686-181.417-75.145S-0.563,324.53-0.563,256
		c0-68.512,26.675-132.928,75.111-181.383C123.01,26.137,187.452-0.563,256-0.563c68.53,0,132.958,26.688,181.418,75.145
		C485.875,123.041,512.562,187.47,512.562,256s-26.688,132.958-75.145,181.418C388.958,485.875,324.53,512.562,256,512.562z
		 M256,34.514c-59.177,0-114.807,23.05-156.643,64.901C57.543,141.245,34.514,196.854,34.514,256
		c0,59.161,23.039,114.781,64.872,156.614c41.833,41.833,97.453,64.871,156.613,64.871s114.781-23.039,156.614-64.871
		S477.486,315.161,477.486,256s-23.039-114.781-64.871-156.614C370.781,57.553,315.161,34.514,256,34.514z"/>
	<path stroke="#FFFFFF" stroke-miterlimit="10" d="M256,423.998c-3.709,0-7.417-1.174-10.539-3.52
		c-1.581-1.19-39.16-29.549-77.33-67.613c-53.507-53.36-80.638-98.446-80.638-134.007c0-51.248,41.693-92.942,92.942-92.942
		s92.941,41.693,92.941,92.942c0,9.686-7.852,17.538-17.538,17.538s-17.538-7.852-17.538-17.538
		c0-31.907-25.958-57.865-57.865-57.865s-57.865,25.958-57.865,57.865c0,25.171,24.977,63.942,70.33,109.169
		c24.661,24.593,49.49,45.264,63.085,56.15c13.634-10.943,38.566-31.75,63.208-56.406c45.084-45.111,69.913-83.79,69.913-108.914
		c0-31.907-25.958-57.865-57.865-57.865c-9.704,0-18.697,1.482-26.731,4.405c-9.101,3.31-19.166-1.382-22.478-10.484
		c-3.312-9.103,1.382-19.167,10.485-22.478c11.888-4.325,24.917-6.518,38.724-6.518c51.248,0,92.942,41.693,92.942,92.942
		c0,35.553-27.072,80.635-80.463,133.993c-38.089,38.065-75.589,66.427-77.166,67.615C263.43,422.821,259.714,423.998,256,423.998z"
		/>
</g>
</svg>
