<?xml version="1.0" encoding="utf-8"?>
<!-- Generator: Adobe Illustrator 17.0.0, SVG Export Plug-In . SVG Version: 6.00 Build 0)  -->
<!DOCTYPE svg PUBLIC "-//W3C//DTD SVG 1.1//EN" "http://www.w3.org/Graphics/SVG/1.1/DTD/svg11.dtd">
<svg version="1.1" id="Camada_1" xmlns="http://www.w3.org/2000/svg" xmlns:xlink="http://www.w3.org/1999/xlink" x="0px" y="0px"
	 width="512px" height="512px" viewBox="0 0 512 512" enable-background="new 0 0 512 512" xml:space="preserve">
<path d="M255.996,512.003c-68.382,0-132.669-26.631-181.019-74.986C26.628,388.668,0,324.381,0,256S26.628,123.332,74.978,74.981
	c48.344-48.344,112.63-74.974,181.014-74.985c68.393,0,132.68,26.631,181.025,74.987c48.342,48.342,74.972,112.613,74.983,180.972
	c0.011,68.394-26.62,132.696-74.986,181.061C388.666,485.373,324.377,512.003,255.996,512.003z M255.995,35.299
	c-58.954,0.01-114.377,22.967-156.056,64.646C58.258,141.627,35.302,197.048,35.302,256c0,58.951,22.955,114.372,64.638,156.056
	c41.684,41.688,97.105,64.646,156.056,64.646c58.95,0,114.372-22.957,156.053-64.646c41.699-41.697,64.656-97.132,64.648-156.094
	c-0.01-58.931-22.967-114.339-64.646-156.017C370.372,58.256,314.952,35.299,255.995,35.299z"/>
<g>
	<path d="M319.256,278.502H192.744c-12.387,0-22.427-10.041-22.427-22.427s10.041-22.427,22.427-22.427h126.513
		c12.387,0,22.427,10.041,22.427,22.427S331.642,278.502,319.256,278.502z"/>
	<path d="M321.009,201.048H190.99c-12.73,0-23.048-10.319-23.048-23.048s10.319-23.048,23.048-23.048h130.02
		c12.73,0,23.048,10.319,23.048,23.048S333.739,201.048,321.009,201.048z"/>
	<path d="M319.043,357.048H192.956c-12.345,0-22.352-10.007-22.352-22.352s10.007-22.352,22.352-22.352h126.088
		c12.345,0,22.352,10.007,22.352,22.352S331.388,357.048,319.043,357.048z"/>
</g>
</svg>
