<?xml version="1.0" encoding="utf-8"?>
<!-- Generator: Adobe Illustrator 17.0.0, SVG Export Plug-In . SVG Version: 6.00 Build 0)  -->
<!DOCTYPE svg PUBLIC "-//W3C//DTD SVG 1.1//EN" "http://www.w3.org/Graphics/SVG/1.1/DTD/svg11.dtd">
<svg version="1.1" id="Camada_1" xmlns="http://www.w3.org/2000/svg" xmlns:xlink="http://www.w3.org/1999/xlink" x="0px" y="0px"
	 width="512px" height="512px" viewBox="0 0 512 512" enable-background="new 0 0 512 512" xml:space="preserve">
<g id="icomoon-ignore">
</g>
<g>
	<path d="M436.983,74.945C388.63,26.62,324.355,0.006,256,0.006c-68.367,0-132.657,26.629-181.028,74.984
		C26.625,123.341,0,187.627,0,256.006c0,68.378,26.628,132.663,74.979,181.013c48.352,48.35,112.64,74.978,181.021,74.978
		c68.381,0,132.669-26.63,181.021-74.983C485.372,388.66,512,324.374,512,255.996C512,187.603,485.359,123.305,436.983,74.945z
		 M411.678,411.67c-41.583,41.585-96.87,64.486-155.678,64.486c-58.809,0-114.096-22.899-155.678-64.48S35.84,314.81,35.84,256.005
		c0-58.805,22.898-114.091,64.473-155.671c41.6-41.586,96.891-64.488,155.687-64.488c58.786,0,114.062,22.889,155.646,64.448
		c41.603,41.588,64.514,96.885,64.514,155.703C476.16,314.801,453.26,370.087,411.678,411.67z"/>
	<path d="M375.911,331.971l-1.408-3.031c-4.229-9.959-56.13-25.206-60.411-25.452l-3.461,0.266
		c-7.086,1.449-14.848,8.151-31.232,22.651c-18.442-8.519-43.678-31.273-55.577-44.682c-12.877-14.51-28.933-38.933-34.714-57.17
		c18.657-16.532,26.44-23.716,26.931-31.708c0.256-4.291-8.643-57.61-18.018-63.012l-2.821-1.776
		c-5.945-3.85-14.981-9.671-25.001-7.618c-2.432,0.502-4.792,1.459-6.994,2.832c-6.758,4.229-23.214,15.667-30.72,30.597
		c-4.629,9.314-6.713,94.213,56.883,165.95c62.889,70.948,140.406,74.03,152.059,71.644l0.307-0.062l1.029-0.297
		c15.719-5.637,29.056-20.628,34.079-26.808c9.221-11.449,2.642-25.031-0.932-32.322L375.911,331.971z"/>
</g>
</svg>
