<?xml version="1.0" encoding="utf-8"?>
<!-- Generator: Adobe Illustrator 17.0.0, SVG Export Plug-In . SVG Version: 6.00 Build 0)  -->
<!DOCTYPE svg PUBLIC "-//W3C//DTD SVG 1.1//EN" "http://www.w3.org/Graphics/SVG/1.1/DTD/svg11.dtd">
<svg version="1.1" id="Camada_1" xmlns="http://www.w3.org/2000/svg" xmlns:xlink="http://www.w3.org/1999/xlink" x="0px" y="0px"
	 width="512px" height="512px" viewBox="0 0 512 512" enable-background="new 0 0 512 512" xml:space="preserve">
<path d="M256,0.005C115.686,0.005,1.395,113.476,0.032,253.469c-0.004,0.187-0.028,0.37-0.028,0.558
	c0,0.113,0.015,0.221,0.017,0.334C0.017,254.906,0,255.448,0,255.994c0,141.159,114.841,256.001,256,256.001
	s256-114.842,256-256.001C512,114.841,397.159,0.005,256,0.005z M255.436,475.875c-113.771,0-207.648-87.543-218.883-197.808
	h220.186l-64.159,64.304c-9.534,9.534-9.534,25.064,0,34.597c4.767,4.767,11.015,7.187,17.263,7.187
	c6.247,0,12.496-2.366,17.263-7.133l88.987-88.978c8.604-8.602,13.33-20.029,13.309-32.184c-0.02-12.126-4.767-23.531-13.348-32.101
	l-92.898-92.918c-9.534-9.534-24.991-9.534-34.527-0.003c-9.535,9.533-9.536,25.107-0.004,34.642l64.149,64.28H37.024
	C50.145,120.545,143.084,36.125,255.436,36.125c121.313,0,220.01,98.561,220.01,219.87
	C475.447,377.308,376.75,475.875,255.436,475.875z"/>
</svg>
