<?xml version="1.0" encoding="utf-8"?>
<!-- Generator: Adobe Illustrator 17.0.0, SVG Export Plug-In . SVG Version: 6.00 Build 0)  -->
<!DOCTYPE svg PUBLIC "-//W3C//DTD SVG 1.1//EN" "http://www.w3.org/Graphics/SVG/1.1/DTD/svg11.dtd">
<svg version="1.1" id="Camada_1" xmlns="http://www.w3.org/2000/svg" xmlns:xlink="http://www.w3.org/1999/xlink" x="0px" y="0px"
	 width="512px" height="512px" viewBox="0 0 512 512" enable-background="new 0 0 512 512" xml:space="preserve">
<g id="icomoon-ignore">
</g>
<path d="M438.971,435.018c47.107-48.12,73.03-111.574,73.03-179.023c0-68.403-26.644-132.703-75.021-181.051
	C388.634,26.616,324.359,0,255.996,0C187.629,0,123.343,26.631,74.979,74.988C26.628,123.333,0,187.62,0.001,256.005
	c0,68.381,26.626,132.667,74.975,181.017S187.613,512,255.996,512c68.384,0,132.673-26.63,181.025-74.984
	c0.393-0.393,0.772-0.795,1.161-1.19c0.104-0.099,0.216-0.185,0.318-0.287C438.668,435.371,438.812,435.19,438.971,435.018z
	 M100.318,411.679c-41.579-41.58-64.478-96.866-64.479-155.674c0-58.812,22.9-114.097,64.48-155.672
	C141.913,58.744,197.2,35.84,255.995,35.84c58.792,0,114.068,22.89,155.647,64.454c41.604,41.58,64.518,96.875,64.518,155.702
	c0,52.084-17.976,101.399-50.972,140.886L300.365,272.044c12.233-17.351,18.823-38.002,18.823-59.666
	c0-27.735-10.802-53.812-30.416-73.425c-19.612-19.613-45.692-30.414-73.445-30.414c-27.731,0.014-53.796,10.815-73.396,30.414
	c-19.612,19.613-30.413,45.689-30.413,73.425s10.801,53.812,30.412,73.425c19.612,19.614,45.687,30.416,73.423,30.416
	c21.669,0,42.323-6.593,59.672-18.829L400.09,422.468c-40.006,34.733-90.591,53.693-144.093,53.693
	C197.186,476.16,141.899,453.261,100.318,411.679z M215.353,280.379c-18.162,0-35.236-7.073-48.079-19.918
	c-12.843-12.844-19.917-29.92-19.917-48.083s7.073-35.239,19.917-48.083c12.834-12.834,29.906-19.907,48.062-19.917
	c18.17,0,35.25,7.073,48.093,19.917c12.845,12.844,19.919,29.92,19.919,48.082s-7.074,35.238-19.921,48.085
	C250.587,273.306,233.514,280.379,215.353,280.379z"/>
</svg>
