<?xml version="1.0" encoding="utf-8"?>
<!-- Generator: Adobe Illustrator 17.0.0, SVG Export Plug-In . SVG Version: 6.00 Build 0)  -->
<!DOCTYPE svg PUBLIC "-//W3C//DTD SVG 1.1//EN" "http://www.w3.org/Graphics/SVG/1.1/DTD/svg11.dtd">
<svg version="1.1" id="Camada_1" xmlns="http://www.w3.org/2000/svg" xmlns:xlink="http://www.w3.org/1999/xlink" x="0px" y="0px"
	 width="512px" height="512px" viewBox="0 0 512 512" enable-background="new 0 0 512 512" xml:space="preserve">
<g>
	<path d="M437.018,74.982C388.665,26.632,324.379,0.005,256,0.005c-68.405,0-132.702,26.639-181.047,75.006
		C26.619,123.357,0,187.631,0,255.995c0,68.369,26.63,132.658,74.985,181.025c48.348,48.349,112.634,74.975,181.015,74.975
		c68.379,0,132.666-26.628,181.018-74.978C485.37,388.665,512,324.377,512,255.995C512,187.617,485.37,123.332,437.018,74.982z
		 M411.994,411.992c-41.668,41.667-97.068,64.613-155.994,64.613c-58.929,0-114.327-22.945-155.989-64.608
		C58.34,370.315,35.39,314.913,35.39,255.995c0-58.912,22.939-114.3,64.592-155.963C141.644,58.35,197.052,35.395,256,35.395
		c58.926,0,114.325,22.946,155.994,64.612s64.616,97.063,64.616,155.987C476.61,314.924,453.662,370.324,411.994,411.992z"/>
	<path d="M298.875,289.689c-16.74,0-32.106,5.989-44.075,15.932l-35.649-24.055c3.165-7.914,4.925-16.537,4.925-25.567
		c0-9.148-1.803-17.878-5.047-25.876l34.387-24.883c12.497,10.948,28.553,17.068,45.459,17.068c38.091,0,69.08-30.989,69.08-69.08
		s-30.989-69.081-69.08-69.081s-69.081,30.99-69.081,69.081c0,7.755,1.326,15.41,3.835,22.645l-35.855,25.945
		c-11.775-9.317-26.633-14.9-42.779-14.9c-38.091,0-69.081,30.99-69.081,69.081s30.99,69.08,69.081,69.08
		c16.254,0,31.203-5.656,43.015-15.085l36.222,24.442c-2.861,7.574-4.438,15.772-4.438,24.334c0,38.091,30.99,69.08,69.081,69.08
		s69.08-30.989,69.08-69.08S336.966,289.689,298.875,289.689z M298.875,119.538c18.577,0,33.69,15.113,33.69,33.69
		c0,18.576-15.113,33.69-33.69,33.69c-10.093,0-19.568-4.471-26.009-12.28c-0.843-1.02-1.613-2.081-2.322-3.172
		c-0.072-0.103-0.13-0.212-0.204-0.314c-0.006-0.009-0.014-0.016-0.02-0.025c-3.371-5.332-5.136-11.442-5.136-17.898
		C265.185,134.651,280.298,119.538,298.875,119.538z M154.996,289.689c-18.577,0-33.69-15.113-33.69-33.69s15.113-33.69,33.69-33.69
		c10.704,0,20.25,5.023,26.426,12.83c0.056,0.08,0.1,0.163,0.157,0.242c0.243,0.336,0.499,0.659,0.761,0.973
		c3.988,5.535,6.346,12.318,6.346,19.645C188.686,274.576,173.573,289.689,154.996,289.689z M298.875,392.46
		c-18.577,0-33.69-15.113-33.69-33.69s15.113-33.691,33.69-33.691s33.69,15.114,33.69,33.691S317.452,392.46,298.875,392.46z"/>
</g>
</svg>
