<?xml version="1.0" encoding="utf-8"?>
<!-- Generator: Adobe Illustrator 17.0.0, SVG Export Plug-In . SVG Version: 6.00 Build 0)  -->
<!DOCTYPE svg PUBLIC "-//W3C//DTD SVG 1.1//EN" "http://www.w3.org/Graphics/SVG/1.1/DTD/svg11.dtd">
<svg version="1.1" id="Camada_1" xmlns="http://www.w3.org/2000/svg" xmlns:xlink="http://www.w3.org/1999/xlink" x="0px" y="0px"
	 width="512px" height="512px" viewBox="0 0 512 512" enable-background="new 0 0 512 512" xml:space="preserve">
<g id="icomoon-ignore">
</g>
<g>
	<path d="M436.934,75.066C388.605,26.737,324.348,0.12,256.001,0.12S123.396,26.736,75.066,75.066S0.12,187.653,0.12,256.001
		s26.616,132.605,74.946,180.934c48.33,48.33,112.587,74.946,180.935,74.946s132.605-26.616,180.934-74.946
		S511.88,324.347,511.88,256C511.881,187.653,485.264,123.396,436.934,75.066z M100.739,100.739
		C142.211,59.267,197.351,36.427,256,36.427s113.79,22.84,155.261,64.312S475.573,197.351,475.573,256
		c0,49.609-16.344,96.704-46.479,135.142c-20.87-19.211-44.558-34.694-70.637-46.103c-32.381-14.165-66.857-21.349-102.47-21.349
		c-35.604,0-70.072,7.179-102.446,21.34c-26.081,11.408-49.772,26.889-70.645,46.1C52.767,352.693,36.427,305.602,36.427,256
		C36.427,197.351,59.267,142.211,100.739,100.739z M107.554,417.779c17.898-16.454,38.2-29.713,60.538-39.484
		c27.756-12.14,57.329-18.298,87.895-18.298c30.574,0,60.153,6.158,87.918,18.305c22.339,9.774,42.638,23.033,60.531,39.486
		c-40.603,37.328-92.944,57.785-148.436,57.785C200.504,475.574,148.158,455.113,107.554,417.779z"/>
	<path d="M256.001,304.868c66.413,0,120.442-54.03,120.442-120.442S322.413,63.984,256.001,63.984s-120.442,54.03-120.442,120.442
		S189.589,304.868,256.001,304.868z M256.001,100.291c46.392,0,84.135,37.743,84.135,84.135s-37.743,84.135-84.135,84.135
		s-84.135-37.743-84.135-84.135S209.608,100.291,256.001,100.291z"/>
</g>
</svg>
